<svg width="100" height="26" viewBox="0 0 100 26" fill="none" xmlns="http://www.w3.org/2000/svg">
<g clip-path="url(#clip0_36_2503)">
<path d="M86 10C87.6569 10 89 8.65687 89 7C89 5.34315 87.6569 4 86 4C84.3431 4 83 5.34315 83 7C83 8.65687 84.3431 10 86 10Z" stroke="#F9FBFC" stroke-width="0.666667"/>
<path d="M86.9421 6.05654C86.4214 5.53584 85.5772 5.53584 85.0565 6.05654C84.5358 6.57725 84.5358 7.42145 85.0565 7.94215C85.5772 8.46285 86.4214 8.46285 86.9421 7.94215" stroke="#F9FBFC" stroke-width="0.666667" stroke-linecap="square"/>
</g>
<path d="M39.912 6.4968V7.9368L33.96 16.6568H39.976V18.0968H32.216V16.6568L38.184 7.9368H32.696V6.4968H39.912ZM45.0077 6.4968H46.5277V13.5528C46.5277 14.7581 46.6877 15.6168 47.0077 16.1288C47.3277 16.6408 47.9571 16.8968 48.8958 16.8968C49.8451 16.8968 50.4797 16.6195 50.7997 16.0648C51.1304 15.5101 51.2958 14.6141 51.2958 13.3768V6.4968H52.8158V13.2488C52.8158 15.0088 52.5278 16.2941 51.9517 17.1048C51.3757 17.9048 50.3571 18.3048 48.8958 18.3048C47.4557 18.3048 46.4477 17.9368 45.8717 17.2008C45.2957 16.4648 45.0077 15.1901 45.0077 13.3768V6.4968ZM59.7355 6.4968V12.0488L63.8795 6.4968H65.6715L62.1675 11.0248L66.1195 18.0968H64.3755L61.1755 12.3048L59.7355 14.1608V18.0968H58.2155V6.4968H59.7355ZM71.0233 18.0968V6.4968H77.9353V7.9368H72.5433V11.3928H77.6153V12.8328H72.5433V16.6568H77.9353V18.0968H71.0233Z" fill="#F9FBFC"/>
<path d="M22.1938 4.18974C22.6679 4.30965 23 4.73623 23 5.22528V16.9754C23 17.6729 22.3425 18.1832 21.6668 18.0102L19.2396 17.3885V8.21159C19.2396 7.71883 18.9026 7.29002 18.4237 7.17366L10.5207 5.25306V2.60946C10.5207 1.91335 11.1759 1.40325 11.8508 1.57392L22.1938 4.18974Z" fill="url(#paint0_linear_36_2503)"/>
<path d="M15.4793 16.455L11.3288 15.4132C10.8538 15.2939 10.5207 14.8669 10.5207 14.3772V9.34265L14.6683 10.3713C15.1447 10.4895 15.4793 10.9172 15.4793 11.4081V16.455Z" fill="url(#paint1_linear_36_2503)"/>
<path d="M6.81567 5.65232C6.81567 4.94999 7.48186 4.4388 8.16026 4.62057L10.5207 5.25306V9.34265L6.81567 8.34989V5.65232Z" fill="url(#paint2_linear_36_2503)"/>
<path d="M19.2396 20.0635C19.2396 20.7544 18.5936 21.2635 17.9219 21.1021L15.4793 20.5149V16.455L19.2396 17.3885V20.0635Z" fill="url(#paint3_linear_36_2503)"/>
<path d="M3 8.74837C3 8.05085 3.65766 7.5405 4.33333 7.71367L6.81567 8.34989V17.5174C6.81567 18.0076 7.14939 18.4349 7.62503 18.5537L15.4793 20.5149V23.15C15.4793 23.8442 14.8276 24.3539 14.1539 24.1867L3.81087 21.62C3.3345 21.5018 3 21.0742 3 20.5833V8.74837Z" fill="url(#paint4_linear_36_2503)"/>
<path d="M18.8396 20.0635V17.7013L15.8793 16.9664V16.9678V20.1997L18.0153 20.7131C18.4355 20.8141 18.8396 20.4957 18.8396 20.0635ZM7.21567 8.04295L10.1207 8.82136V5.56749V5.55999L8.05673 5.00694C7.63238 4.89324 7.21567 5.213 7.21567 5.65232V8.03948V8.04295ZM10.9207 2.60946V4.93862L18.5182 6.78497C19.1763 6.94491 19.6396 7.5343 19.6396 8.21159V17.0756V17.078L21.7661 17.6227C22.1887 17.7309 22.6 17.4117 22.6 16.9754V5.22528C22.6 4.91937 22.3922 4.65254 22.0957 4.57753L11.7527 1.96171C11.3306 1.85495 10.9207 2.17403 10.9207 2.60946ZM10.9207 9.85398V9.86394V14.3772C10.9207 14.6835 11.1291 14.9506 11.4262 15.0252L15.0793 15.9422V11.4081C15.0793 11.101 14.87 10.8335 14.572 10.7596L10.9207 9.85398ZM4.23402 8.10114C3.81138 7.99282 3.4 8.31206 3.4 8.74837V20.5833C3.4 20.8904 3.60923 21.1579 3.90722 21.2318L14.2502 23.7985C14.6716 23.9031 15.0793 23.5842 15.0793 23.15V20.8302V20.8273L7.52813 18.9418C6.87437 18.7785 6.41567 18.1912 6.41567 17.5174V8.6603L4.23402 8.10114Z" stroke="white" stroke-opacity="0.25" stroke-width="0.8"/>
<defs>
<linearGradient id="paint0_linear_36_2503" x1="13" y1="-3.5" x2="13" y2="24.5156" gradientUnits="userSpaceOnUse">
<stop stop-color="#9CE6FF"/>
<stop offset="1" stop-color="#1AC4FF"/>
</linearGradient>
<linearGradient id="paint1_linear_36_2503" x1="13" y1="-3.5" x2="13" y2="24.5156" gradientUnits="userSpaceOnUse">
<stop stop-color="#9CE6FF"/>
<stop offset="1" stop-color="#1AC4FF"/>
</linearGradient>
<linearGradient id="paint2_linear_36_2503" x1="13" y1="-3.5" x2="13" y2="24.5156" gradientUnits="userSpaceOnUse">
<stop stop-color="#9CE6FF"/>
<stop offset="1" stop-color="#1AC4FF"/>
</linearGradient>
<linearGradient id="paint3_linear_36_2503" x1="13" y1="-3.5" x2="13" y2="24.5156" gradientUnits="userSpaceOnUse">
<stop stop-color="#9CE6FF"/>
<stop offset="1" stop-color="#1AC4FF"/>
</linearGradient>
<linearGradient id="paint4_linear_36_2503" x1="13" y1="-3.5" x2="13" y2="24.5156" gradientUnits="userSpaceOnUse">
<stop stop-color="#9CE6FF"/>
<stop offset="1" stop-color="#1AC4FF"/>
</linearGradient>
<clipPath id="clip0_36_2503">
<rect width="8" height="8" fill="white" transform="translate(82 3)"/>
</clipPath>
</defs>
</svg>
