<svg width="118" height="26" viewBox="0 0 118 26" fill="none" xmlns="http://www.w3.org/2000/svg">
<path d="M39.9118 6.49658V7.93658L33.9598 16.6566H39.9758V18.0966H32.2158V16.6566L38.1838 7.93658H32.6958V6.49658H39.9118Z" fill="#F9FBFC"/>
<path d="M45.0076 6.49658H46.5276V13.5526C46.5276 14.7579 46.6876 15.6166 47.0076 16.1286C47.3276 16.6406 47.9569 16.8966 48.8956 16.8966C49.8449 16.8966 50.4796 16.6192 50.7996 16.0646C51.1302 15.5099 51.2956 14.6139 51.2956 13.3766V6.49658H52.8156V13.2486C52.8156 15.0086 52.5276 16.2939 51.9516 17.1046C51.3756 17.9046 50.3569 18.3046 48.8956 18.3046C47.4556 18.3046 46.4476 17.9366 45.8716 17.2006C45.2956 16.4646 45.0076 15.1899 45.0076 13.3766V6.49658Z" fill="#F9FBFC"/>
<path d="M59.7353 6.49658V12.0486L63.8793 6.49658H65.6713L62.1673 11.0246L66.1193 18.0966H64.3753L61.1753 12.3046L59.7353 14.1606V18.0966H58.2153V6.49658H59.7353Z" fill="#F9FBFC"/>
<path d="M71.0231 18.0966V6.49658H77.9351V7.93658H72.5431V11.3926H77.6151V12.8326H72.5431V16.6566H77.9351V18.0966H71.0231Z" fill="#F9FBFC"/>
<path d="M22.1938 4.1895C22.6679 4.30941 23 4.73599 23 5.22503V16.9752C23 17.6726 22.3425 18.183 21.6668 18.0099L19.2396 17.3882V8.21134C19.2396 7.71859 18.9026 7.28978 18.4237 7.17341L10.5207 5.25281V2.60922C10.5207 1.91311 11.1759 1.403 11.8508 1.57368L22.1938 4.1895Z" fill="url(#paint0_linear_71_2501)"/>
<path d="M15.4793 16.4547L11.3288 15.4129C10.8538 15.2937 10.5207 14.8667 10.5207 14.3769V9.3424L14.6683 10.3711C15.1447 10.4893 15.4793 10.9169 15.4793 11.4078V16.4547Z" fill="url(#paint1_linear_71_2501)"/>
<path d="M6.81567 5.65207C6.81567 4.94974 7.48186 4.43855 8.16026 4.62033L10.5207 5.25281V9.3424L6.81567 8.34964V5.65207Z" fill="url(#paint2_linear_71_2501)"/>
<path d="M19.2396 20.0633C19.2396 20.7542 18.5936 21.2633 17.9219 21.1018L15.4793 20.5147V16.4547L19.2396 17.3882V20.0633Z" fill="url(#paint3_linear_71_2501)"/>
<path d="M3 8.74812C3 8.05061 3.65766 7.54025 4.33333 7.71342L6.81567 8.34964V17.5171C6.81567 18.0074 7.14939 18.4347 7.62503 18.5535L15.4793 20.5147V23.1498C15.4793 23.8439 14.8276 24.3537 14.1539 24.1865L3.81087 21.6198C3.3345 21.5016 3 21.0739 3 20.5831V8.74812Z" fill="url(#paint4_linear_71_2501)"/>
<path d="M18.8396 20.0633V17.7011L15.8793 16.9662V16.9676V20.1995L18.0153 20.7129C18.4355 20.8139 18.8396 20.4954 18.8396 20.0633ZM7.21567 8.04271L10.1207 8.82112V5.56725V5.55974L8.05673 5.0067C7.63238 4.89299 7.21567 5.21275 7.21567 5.65207V8.03923V8.04271ZM10.9207 2.60922V4.93838L18.5182 6.78473C19.1763 6.94467 19.6396 7.53406 19.6396 8.21134V17.0754V17.0778L21.7661 17.6224C22.1887 17.7307 22.6 17.4114 22.6 16.9752V5.22503C22.6 4.91913 22.3922 4.65229 22.0957 4.57729L11.7527 1.96147C11.3306 1.85471 10.9207 2.17379 10.9207 2.60922ZM10.9207 9.85373V9.86369V14.3769C10.9207 14.6833 11.1291 14.9504 11.4262 15.025L15.0793 15.9419V11.4078C15.0793 11.1008 14.87 10.8333 14.572 10.7593L10.9207 9.85373ZM4.23402 8.1009C3.81138 7.99258 3.4 8.31182 3.4 8.74812V20.5831C3.4 20.8901 3.60923 21.1576 3.90722 21.2316L14.2502 23.7983C14.6716 23.9028 15.0793 23.584 15.0793 23.1498V20.8299V20.8271L7.52813 18.9416C6.87437 18.7783 6.41567 18.191 6.41567 17.5171V8.66005L4.23402 8.1009Z" stroke="white" stroke-opacity="0.25" stroke-width="0.8"/>
<g filter="url(#filter0_d_71_2501)">
<rect x="84" y="4" width="31" height="15" rx="2" fill="url(#paint5_linear_71_2501)"/>
<rect x="84" y="4" width="31" height="15" rx="2" fill="url(#paint6_linear_71_2501)" fill-opacity="0.44"/>
<rect x="84.5208" y="4.52083" width="29.9583" height="13.9583" rx="1.47917" stroke="white" stroke-opacity="0.25" stroke-width="1.04167"/>
</g>
<path d="M89.6274 8.13848H91.9733C94.0022 8.13848 94.9744 8.76698 94.9744 10.3329C94.9744 12.3569 93.3999 13.1451 91.2336 13.1451H90.0818L89.5111 15.8615H88L89.6274 8.13848ZM90.8743 9.37417L90.3459 11.9201H91.3921C92.4277 11.9201 93.3576 11.6964 93.3576 10.4501C93.3576 9.51265 92.5228 9.37417 91.8042 9.37417H90.8743Z" fill="black"/>
<path d="M89.6274 8.13848H91.9733C94.0022 8.13848 94.9744 8.76698 94.9744 10.3329C94.9744 12.3569 93.3999 13.1451 91.2336 13.1451H90.0818L89.5111 15.8615H88L89.6274 8.13848ZM90.8743 9.37417L90.3459 11.9201H91.3921C92.4277 11.9201 93.3576 11.6964 93.3576 10.4501C93.3576 9.51265 92.5228 9.37417 91.8042 9.37417H90.8743Z" fill="url(#paint7_linear_71_2501)"/>
<path d="M89.6274 8.13848H91.9733C94.0022 8.13848 94.9744 8.76698 94.9744 10.3329C94.9744 12.3569 93.3999 13.1451 91.2336 13.1451H90.0818L89.5111 15.8615H88L89.6274 8.13848ZM90.8743 9.37417L90.3459 11.9201H91.3921C92.4277 11.9201 93.3576 11.6964 93.3576 10.4501C93.3576 9.51265 92.5228 9.37417 91.8042 9.37417H90.8743Z" fill="url(#paint8_linear_71_2501)" fill-opacity="0.44"/>
<path d="M89.6274 8.13848H91.9733C94.0022 8.13848 94.9744 8.76698 94.9744 10.3329C94.9744 12.3569 93.3999 13.1451 91.2336 13.1451H90.0818L89.5111 15.8615H88L89.6274 8.13848ZM90.8743 9.37417L90.3459 11.9201H91.3921C92.4277 11.9201 93.3576 11.6964 93.3576 10.4501C93.3576 9.51265 92.5228 9.37417 91.8042 9.37417H90.8743Z" fill="black"/>
<path d="M89.6274 8.13848H91.9733C94.0022 8.13848 94.9744 8.76698 94.9744 10.3329C94.9744 12.3569 93.3999 13.1451 91.2336 13.1451H90.0818L89.5111 15.8615H88L89.6274 8.13848ZM90.8743 9.37417L90.3459 11.9201H91.3921C92.4277 11.9201 93.3576 11.6964 93.3576 10.4501C93.3576 9.51265 92.5228 9.37417 91.8042 9.37417H90.8743Z" fill="url(#paint9_linear_71_2501)" fill-opacity="0.44"/>
<path d="M99.9056 15.8615L99.018 12.8362H97.5386L96.9045 15.8615H95.3934L97.0208 8.13848H99.3244C101.279 8.13848 102.484 8.63915 102.484 10.1411C102.484 11.4621 101.692 12.2397 100.561 12.5806L101.533 15.8615H99.9056ZM98.2677 9.37417L97.8027 11.6112H98.9335C99.7788 11.6112 100.878 11.4301 100.878 10.3222C100.878 9.54461 100.223 9.37417 99.3139 9.37417H98.2677Z" fill="black"/>
<path d="M99.9056 15.8615L99.018 12.8362H97.5386L96.9045 15.8615H95.3934L97.0208 8.13848H99.3244C101.279 8.13848 102.484 8.63915 102.484 10.1411C102.484 11.4621 101.692 12.2397 100.561 12.5806L101.533 15.8615H99.9056ZM98.2677 9.37417L97.8027 11.6112H98.9335C99.7788 11.6112 100.878 11.4301 100.878 10.3222C100.878 9.54461 100.223 9.37417 99.3139 9.37417H98.2677Z" fill="url(#paint10_linear_71_2501)"/>
<path d="M99.9056 15.8615L99.018 12.8362H97.5386L96.9045 15.8615H95.3934L97.0208 8.13848H99.3244C101.279 8.13848 102.484 8.63915 102.484 10.1411C102.484 11.4621 101.692 12.2397 100.561 12.5806L101.533 15.8615H99.9056ZM98.2677 9.37417L97.8027 11.6112H98.9335C99.7788 11.6112 100.878 11.4301 100.878 10.3222C100.878 9.54461 100.223 9.37417 99.3139 9.37417H98.2677Z" fill="url(#paint11_linear_71_2501)" fill-opacity="0.44"/>
<path d="M99.9056 15.8615L99.018 12.8362H97.5386L96.9045 15.8615H95.3934L97.0208 8.13848H99.3244C101.279 8.13848 102.484 8.63915 102.484 10.1411C102.484 11.4621 101.692 12.2397 100.561 12.5806L101.533 15.8615H99.9056ZM98.2677 9.37417L97.8027 11.6112H98.9335C99.7788 11.6112 100.878 11.4301 100.878 10.3222C100.878 9.54461 100.223 9.37417 99.3139 9.37417H98.2677Z" fill="black"/>
<path d="M99.9056 15.8615L99.018 12.8362H97.5386L96.9045 15.8615H95.3934L97.0208 8.13848H99.3244C101.279 8.13848 102.484 8.63915 102.484 10.1411C102.484 11.4621 101.692 12.2397 100.561 12.5806L101.533 15.8615H99.9056ZM98.2677 9.37417L97.8027 11.6112H98.9335C99.7788 11.6112 100.878 11.4301 100.878 10.3222C100.878 9.54461 100.223 9.37417 99.3139 9.37417H98.2677Z" fill="url(#paint12_linear_71_2501)" fill-opacity="0.44"/>
<path d="M104.998 12.7617C104.998 13.7417 105.473 14.775 106.784 14.775C108.728 14.775 109.447 12.5166 109.447 11.2383C109.447 10.2583 108.971 9.22503 107.671 9.22503C105.727 9.22503 104.998 11.4834 104.998 12.7617ZM111 11.1318C111 13.3901 109.531 16 106.625 16C104.734 16 103.444 14.8708 103.444 12.8682C103.444 10.6099 104.913 8 107.819 8C109.7 8 111 9.12916 111 11.1318Z" fill="black"/>
<path d="M104.998 12.7617C104.998 13.7417 105.473 14.775 106.784 14.775C108.728 14.775 109.447 12.5166 109.447 11.2383C109.447 10.2583 108.971 9.22503 107.671 9.22503C105.727 9.22503 104.998 11.4834 104.998 12.7617ZM111 11.1318C111 13.3901 109.531 16 106.625 16C104.734 16 103.444 14.8708 103.444 12.8682C103.444 10.6099 104.913 8 107.819 8C109.7 8 111 9.12916 111 11.1318Z" fill="url(#paint13_linear_71_2501)"/>
<path d="M104.998 12.7617C104.998 13.7417 105.473 14.775 106.784 14.775C108.728 14.775 109.447 12.5166 109.447 11.2383C109.447 10.2583 108.971 9.22503 107.671 9.22503C105.727 9.22503 104.998 11.4834 104.998 12.7617ZM111 11.1318C111 13.3901 109.531 16 106.625 16C104.734 16 103.444 14.8708 103.444 12.8682C103.444 10.6099 104.913 8 107.819 8C109.7 8 111 9.12916 111 11.1318Z" fill="url(#paint14_linear_71_2501)" fill-opacity="0.44"/>
<path d="M104.998 12.7617C104.998 13.7417 105.473 14.775 106.784 14.775C108.728 14.775 109.447 12.5166 109.447 11.2383C109.447 10.2583 108.971 9.22503 107.671 9.22503C105.727 9.22503 104.998 11.4834 104.998 12.7617ZM111 11.1318C111 13.3901 109.531 16 106.625 16C104.734 16 103.444 14.8708 103.444 12.8682C103.444 10.6099 104.913 8 107.819 8C109.7 8 111 9.12916 111 11.1318Z" fill="black"/>
<path d="M104.998 12.7617C104.998 13.7417 105.473 14.775 106.784 14.775C108.728 14.775 109.447 12.5166 109.447 11.2383C109.447 10.2583 108.971 9.22503 107.671 9.22503C105.727 9.22503 104.998 11.4834 104.998 12.7617ZM111 11.1318C111 13.3901 109.531 16 106.625 16C104.734 16 103.444 14.8708 103.444 12.8682C103.444 10.6099 104.913 8 107.819 8C109.7 8 111 9.12916 111 11.1318Z" fill="url(#paint15_linear_71_2501)" fill-opacity="0.44"/>
<defs>
<filter id="filter0_d_71_2501" x="81.7" y="3.7" width="35.6" height="19.6" filterUnits="userSpaceOnUse" color-interpolation-filters="sRGB">
<feFlood flood-opacity="0" result="BackgroundImageFix"/>
<feColorMatrix in="SourceAlpha" type="matrix" values="0 0 0 0 0 0 0 0 0 0 0 0 0 0 0 0 0 0 127 0" result="hardAlpha"/>
<feMorphology radius="1" operator="erode" in="SourceAlpha" result="effect1_dropShadow_71_2501"/>
<feOffset dy="2"/>
<feGaussianBlur stdDeviation="1.65"/>
<feComposite in2="hardAlpha" operator="out"/>
<feColorMatrix type="matrix" values="0 0 0 0 0.00494792 0 0 0 0 0.707744 0 0 0 0 0.945052 0 0 0 0.25 0"/>
<feBlend mode="normal" in2="BackgroundImageFix" result="effect1_dropShadow_71_2501"/>
<feBlend mode="normal" in="SourceGraphic" in2="effect1_dropShadow_71_2501" result="shape"/>
</filter>
<linearGradient id="paint0_linear_71_2501" x1="13" y1="-3.50024" x2="13" y2="24.5154" gradientUnits="userSpaceOnUse">
<stop stop-color="#9CE6FF"/>
<stop offset="1" stop-color="#1AC4FF"/>
</linearGradient>
<linearGradient id="paint1_linear_71_2501" x1="13" y1="-3.50024" x2="13" y2="24.5154" gradientUnits="userSpaceOnUse">
<stop stop-color="#9CE6FF"/>
<stop offset="1" stop-color="#1AC4FF"/>
</linearGradient>
<linearGradient id="paint2_linear_71_2501" x1="13" y1="-3.50024" x2="13" y2="24.5154" gradientUnits="userSpaceOnUse">
<stop stop-color="#9CE6FF"/>
<stop offset="1" stop-color="#1AC4FF"/>
</linearGradient>
<linearGradient id="paint3_linear_71_2501" x1="13" y1="-3.50024" x2="13" y2="24.5154" gradientUnits="userSpaceOnUse">
<stop stop-color="#9CE6FF"/>
<stop offset="1" stop-color="#1AC4FF"/>
</linearGradient>
<linearGradient id="paint4_linear_71_2501" x1="13" y1="-3.50024" x2="13" y2="24.5154" gradientUnits="userSpaceOnUse">
<stop stop-color="#9CE6FF"/>
<stop offset="1" stop-color="#1AC4FF"/>
</linearGradient>
<linearGradient id="paint5_linear_71_2501" x1="99.5" y1="0.947205" x2="99.5" y2="19" gradientUnits="userSpaceOnUse">
<stop stop-color="#9CE6FF"/>
<stop offset="1" stop-color="#1AC4FF"/>
</linearGradient>
<linearGradient id="paint6_linear_71_2501" x1="99.5" y1="4" x2="109.666" y2="15.4322" gradientUnits="userSpaceOnUse">
<stop stop-color="white" stop-opacity="0"/>
<stop offset="0.524074" stop-color="white"/>
<stop offset="0.588028" stop-color="white" stop-opacity="0"/>
<stop offset="1" stop-color="white" stop-opacity="0"/>
</linearGradient>
<linearGradient id="paint7_linear_71_2501" x1="100.498" y1="5.68907" x2="100.498" y2="18.4048" gradientUnits="userSpaceOnUse">
<stop stop-color="#99D7EC"/>
<stop offset="1" stop-color="#74CBE9"/>
</linearGradient>
<linearGradient id="paint8_linear_71_2501" x1="99.2368" y1="5.05329" x2="109.414" y2="15.7801" gradientUnits="userSpaceOnUse">
<stop stop-color="white" stop-opacity="0"/>
<stop offset="0.524074" stop-color="white"/>
<stop offset="0.588028" stop-color="white" stop-opacity="0"/>
<stop offset="1" stop-color="white" stop-opacity="0"/>
</linearGradient>
<linearGradient id="paint9_linear_71_2501" x1="98.35" y1="7.6" x2="104.227" y2="16.5758" gradientUnits="userSpaceOnUse">
<stop stop-color="#9CE6FF" stop-opacity="0"/>
<stop offset="0.524074" stop-color="#9CE6FF"/>
<stop offset="0.588028" stop-color="#9CE6FF" stop-opacity="0"/>
<stop offset="1" stop-color="#9CE6FF" stop-opacity="0"/>
</linearGradient>
<linearGradient id="paint10_linear_71_2501" x1="100.498" y1="5.68907" x2="100.498" y2="18.4048" gradientUnits="userSpaceOnUse">
<stop stop-color="#99D7EC"/>
<stop offset="1" stop-color="#74CBE9"/>
</linearGradient>
<linearGradient id="paint11_linear_71_2501" x1="99.2368" y1="5.05329" x2="109.414" y2="15.7801" gradientUnits="userSpaceOnUse">
<stop stop-color="white" stop-opacity="0"/>
<stop offset="0.524074" stop-color="white"/>
<stop offset="0.588028" stop-color="white" stop-opacity="0"/>
<stop offset="1" stop-color="white" stop-opacity="0"/>
</linearGradient>
<linearGradient id="paint12_linear_71_2501" x1="98.35" y1="7.6" x2="104.227" y2="16.5758" gradientUnits="userSpaceOnUse">
<stop stop-color="#9CE6FF" stop-opacity="0"/>
<stop offset="0.524074" stop-color="#9CE6FF"/>
<stop offset="0.588028" stop-color="#9CE6FF" stop-opacity="0"/>
<stop offset="1" stop-color="#9CE6FF" stop-opacity="0"/>
</linearGradient>
<linearGradient id="paint13_linear_71_2501" x1="100.498" y1="5.68907" x2="100.498" y2="18.4048" gradientUnits="userSpaceOnUse">
<stop stop-color="#99D7EC"/>
<stop offset="1" stop-color="#74CBE9"/>
</linearGradient>
<linearGradient id="paint14_linear_71_2501" x1="99.2368" y1="5.05329" x2="109.414" y2="15.7801" gradientUnits="userSpaceOnUse">
<stop stop-color="white" stop-opacity="0"/>
<stop offset="0.524074" stop-color="white"/>
<stop offset="0.588028" stop-color="white" stop-opacity="0"/>
<stop offset="1" stop-color="white" stop-opacity="0"/>
</linearGradient>
<linearGradient id="paint15_linear_71_2501" x1="98.35" y1="7.6" x2="104.227" y2="16.5758" gradientUnits="userSpaceOnUse">
<stop stop-color="#9CE6FF" stop-opacity="0"/>
<stop offset="0.524074" stop-color="#9CE6FF"/>
<stop offset="0.588028" stop-color="#9CE6FF" stop-opacity="0"/>
<stop offset="1" stop-color="#9CE6FF" stop-opacity="0"/>
</linearGradient>
</defs>
</svg>
