<svg width="13" height="14" viewBox="0 0 13 14" fill="none" xmlns="http://www.w3.org/2000/svg">
<path d="M12.0847 1.79287C12.3289 1.85479 12.5 2.07462 12.5 2.32662V9.58295C12.5 9.94262 12.1608 10.2057 11.8124 10.1163L10.2438 9.71356V4.12197C10.2438 3.86806 10.0702 3.64708 9.82347 3.58698L5.01244 2.41502V0.707641C5.01244 0.348665 5.35042 0.085679 5.69838 0.173892L12.0847 1.79287Z" fill="url(#paint0_linear_64_5479)"/>
<path d="M7.98756 9.15213L5.42872 8.5083C5.18399 8.44673 5.01244 8.22667 5.01244 7.97431V4.8746L7.56978 5.51039C7.81524 5.57142 7.98756 5.79182 7.98756 6.04476V9.15213Z" fill="url(#paint1_linear_64_5479)"/>
<path d="M2.7894 2.53599C2.7894 2.1738 3.13307 1.91025 3.48286 2.0042L5.01244 2.41502V4.8746L2.7894 4.27753V2.53599Z" fill="url(#paint2_linear_64_5479)"/>
<path d="M10.2438 11.4384C10.2438 11.7947 9.91054 12.0572 9.56417 11.9738L7.98756 11.5939V9.15213L10.2438 9.71356V11.4384Z" fill="url(#paint3_linear_64_5479)"/>
<path d="M0.499999 4.39934C0.499999 4.03964 0.839255 3.77653 1.18764 3.86603L2.7894 4.27753V9.86301C2.7894 10.1156 2.96129 10.3358 3.20634 10.3972L7.98756 11.5939V13.2956C7.98756 13.6536 7.65138 13.9164 7.30401 13.83L0.917714 12.2414C0.672284 12.1803 0.499999 11.96 0.499999 11.707V4.39934Z" fill="url(#paint4_linear_64_5479)"/>
<path d="M10.0376 9.87474L8.19376 9.41593V9.41665V11.4315L9.61247 11.7733C9.82913 11.8255 10.0376 11.6613 10.0376 11.4384V9.87474ZM2.9956 4.1194L4.80624 4.60571V2.57702V2.57315L3.42938 2.20335C3.21057 2.14458 2.9956 2.30943 2.9956 2.53599V4.11761V4.1194ZM5.21865 5.13835V5.14349V7.97431C5.21865 8.13217 5.32595 8.26982 5.47903 8.30833L7.78135 8.88762V6.04476C7.78135 5.88654 7.67357 5.74868 7.52003 5.7105L5.21865 5.13835ZM5.21865 0.707641V2.25302L9.87227 3.38664C10.2113 3.46924 10.45 3.77298 10.45 4.12197V9.55238V9.55361L11.8637 9.91656C12.0816 9.97251 12.2938 9.80793 12.2938 9.58295V2.32662C12.2938 2.16899 12.1868 2.03148 12.034 1.99275L5.64771 0.373772C5.43005 0.318593 5.21865 0.483095 5.21865 0.707641ZM1.13634 4.06575C0.918412 4.00976 0.706202 4.17435 0.706202 4.39934V11.707C0.706202 11.8652 0.813969 12.0031 0.967489 12.0413L7.35378 13.6299C7.57107 13.6839 7.78135 13.5195 7.78135 13.2956V11.7563V11.7548L3.15627 10.5972C2.81945 10.5129 2.5832 10.2102 2.5832 9.86301V4.43745L1.13634 4.06575Z" stroke="white" stroke-opacity="0.25" stroke-width="0.412405"/>
<defs>
<linearGradient id="paint0_linear_64_5479" x1="6.5" y1="-2.84928" x2="6.5" y2="14" gradientUnits="userSpaceOnUse">
<stop stop-color="#9CE6FF"/>
<stop offset="1" stop-color="#1AC4FF"/>
</linearGradient>
<linearGradient id="paint1_linear_64_5479" x1="6.5" y1="-2.84928" x2="6.5" y2="14" gradientUnits="userSpaceOnUse">
<stop stop-color="#9CE6FF"/>
<stop offset="1" stop-color="#1AC4FF"/>
</linearGradient>
<linearGradient id="paint2_linear_64_5479" x1="6.5" y1="-2.84928" x2="6.5" y2="14" gradientUnits="userSpaceOnUse">
<stop stop-color="#9CE6FF"/>
<stop offset="1" stop-color="#1AC4FF"/>
</linearGradient>
<linearGradient id="paint3_linear_64_5479" x1="6.5" y1="-2.84928" x2="6.5" y2="14" gradientUnits="userSpaceOnUse">
<stop stop-color="#9CE6FF"/>
<stop offset="1" stop-color="#1AC4FF"/>
</linearGradient>
<linearGradient id="paint4_linear_64_5479" x1="6.5" y1="-2.84928" x2="6.5" y2="14" gradientUnits="userSpaceOnUse">
<stop stop-color="#9CE6FF"/>
<stop offset="1" stop-color="#1AC4FF"/>
</linearGradient>
</defs>
</svg>
